<svg xmlns="http://www.w3.org/2000/svg" xmlns:xlink="http://www.w3.org/1999/xlink" viewBox="5.24 22.41 171.48 46.22">
	<path fill="#f2f2f2" fill-opacity="0.98823529" transform="matrix(0.0888672 0 0 0.0888672 6.10352e-05 0)" d="M1939.89 509.16C1945.19 509.38 1950.49 509.747 1955.78 509.164L1957.25 511.237C1955.17 513.193 1953.47 513.465 1950.57 513.402C1946.57 513.315 1942.37 512.366 1938.54 513.835L1936.49 513.184L1935.92 511.973C1938.45 511.376 1938.41 511.31 1939.89 509.16Z"/>
	<path fill="#f2f2f2" fill-opacity="0.98039216" transform="matrix(0.0888672 0 0 0.0888672 6.10352e-05 0)" d="M200.1 467.77C203.646 467.889 204.266 467.026 207.14 465.088C206.562 472.704 207.976 543.509 209.304 546.402C209.092 547.845 208.946 548.053 209.614 549.321C220.369 552.132 228.728 542.089 235.194 543.057L235.045 544.142C229.353 548.061 212.405 557.396 205.61 556.2C204.551 554.558 204.638 553.926 204.536 552.018C202.897 551.67 202.287 551.955 200.804 552.576C206.248 524.755 199.477 495.857 200.1 467.77Z"/>
	<path fill="#F3AE08" transform="matrix(0.0888672 0 0 0.0888672 6.10352e-05 0)" d="M835.386 642.229C838.248 642.133 841.563 642.199 844.363 642.751C846.889 643.249 847.923 644.336 849.347 646.333C849.465 647.778 849.39 648.97 848.796 650.317C844.272 660.589 828.522 668.217 818.718 672.266C816.348 672.953 813.267 673.872 810.786 673.788C808.185 673.7 807.357 672.718 805.822 670.89C805.383 668.004 806.244 665.776 807.661 663.323C813.498 653.209 824.15 645.129 835.386 642.229Z"/>
	<path fill="#F3AE08" transform="matrix(0.0888672 0 0 0.0888672 6.10352e-05 0)" d="M1178.74 342.495L1183.91 342.027C1186.39 343.119 1186.68 343.063 1187.87 345.449C1187.73 351.967 1182.71 357.737 1178.34 362.157C1170.18 370.405 1160.82 376.114 1148.97 376.143C1147.41 375.549 1145.32 374.237 1144.1 373.054C1142.18 371.195 1142.15 369.761 1142.1 367.291C1148.26 353.025 1166.7 350.253 1178.32 342.773C1178.46 342.682 1178.6 342.588 1178.74 342.495Z"/>
	<path fill="#F3AE08" transform="matrix(0.0888672 0 0 0.0888672 6.10352e-05 0)" d="M718.205 724.294C724.108 724.219 729.944 725.031 735.304 727.623C739.687 729.743 746.138 734.096 747.361 739.197C748 741.86 747.052 742.889 745.671 744.992C740.664 748.239 734.878 747.763 729.15 747.652C715.129 746.241 704.596 739.609 693.793 731.192C701.708 727.679 709.655 725.542 718.205 724.294Z"/>
	<path fill="#F3AE08" transform="matrix(0.0888672 0 0 0.0888672 6.10352e-05 0)" d="M758.248 653.113C759.157 653.329 760.069 653.549 760.961 653.828C764.158 654.828 765.047 656.395 766.519 659.16C766.696 661.757 766.393 663.702 765.306 666.074C759.286 679.207 745.066 688.842 732.044 693.762C730.899 693.645 729.53 693.578 728.453 693.167C726.346 692.364 725.856 690.879 725.028 689.007C725.151 686.77 725.671 685.018 726.633 683.016C732.71 670.37 745 657.857 758.248 653.113Z"/>
	<path fill="#F3AE08" transform="matrix(0.0888672 0 0 0.0888672 6.10352e-05 0)" d="M799.427 706.318Q801.12 706.062 802.828 705.939C809.861 705.435 817.436 706.363 822.9 711.231C825.185 713.267 827.004 716.045 826.956 719.215C826.92 721.553 825.811 723.553 824.11 725.1C818.391 730.3 809.958 729.409 802.81 729.186C792.177 727.552 782.494 723.676 773.155 718.452C781.453 712.886 789.931 709.332 799.427 706.318Z"/>
	<path fill="#F3AE08" transform="matrix(0.0888672 0 0 0.0888672 6.10352e-05 0)" d="M1202.9 285.499C1211.62 284.733 1219.31 285.66 1227.43 289.035C1231.13 290.57 1237.78 293.843 1239.22 297.952C1239.88 299.867 1239.13 300.699 1238.33 302.426C1234.2 305.947 1228.37 306.763 1223.21 307.871C1218.33 309.278 1212.87 309.355 1207.87 308.607C1201.76 307.691 1193.98 305.001 1190.25 299.711C1188.54 297.298 1188.88 295.735 1189.3 293.033C1192.74 287.85 1197.26 287.011 1202.9 285.499Z"/>
	<path fill="#F3AE08" transform="matrix(0.0888672 0 0 0.0888672 6.10352e-05 0)" d="M1290.25 268.499C1299.84 267.91 1308.92 269.662 1316.98 275.16C1320.85 277.802 1324.51 281.08 1325.47 285.841C1325.11 287.395 1325.07 288.394 1323.93 289.586C1320.21 293.508 1312.78 292.8 1307.75 292.979Q1304.21 293.136 1300.68 292.798Q1297.16 292.459 1293.71 291.631C1288.34 290.294 1279.3 286.867 1276.67 281.471C1275.7 279.477 1275.67 277.473 1276.74 275.511C1279.19 271.007 1285.76 269.589 1290.25 268.499Z"/>
	<path fill="#F3AE08" transform="matrix(0.0888672 0 0 0.0888672 6.10352e-05 0)" d="M669.334 668.099C672.659 667.867 675.759 667.862 679.051 668.473C682.962 669.199 685.299 669.934 687.57 673.274C687.739 675.997 687.002 677.917 685.472 680.116C678.088 690.732 664.791 695.246 652.627 697.384C647.523 697.794 639.883 699.06 635.317 696.6C635.373 695.936 635.392 695.393 635.714 694.79C642.52 682.039 656.104 672.927 669.334 668.099Z"/>
	<path fill="#F3AE08" transform="matrix(0.0888672 0 0 0.0888672 6.10352e-05 0)" d="M1352.42 321.499C1359.32 320.95 1365.74 321.187 1372.45 323.017C1372.78 326.294 1370.62 329.579 1368.71 332.077C1361.33 341.762 1346.96 347.121 1335.23 348.719C1333.82 348.943 1332.53 348.988 1331.12 348.83C1326.61 348.328 1320.11 348.057 1317.14 344.369C1316.77 341.809 1316.92 340.309 1318.44 338.068C1325.62 327.501 1340.58 323.677 1352.42 321.499Z"/>
	<path fill="#F3AE08" transform="matrix(0.0888672 0 0 0.0888672 6.10352e-05 0)" d="M1269.03 328.498C1271.07 328.319 1272.34 328.488 1274.23 329.256C1275.36 330.587 1276.1 331.13 1276.12 332.973C1276.22 340.39 1267.35 350.729 1262.15 355.734C1254.58 363.018 1245.77 368.254 1235.04 368.061C1232.4 366.892 1230.3 364.753 1229.35 361.985C1228.55 359.666 1229.04 357.784 1230.07 355.654C1236.91 341.475 1255.21 333.562 1269.03 328.498Z"/>
	<path fill="#F3AE08" transform="matrix(0.0888672 0 0 0.0888672 6.10352e-05 0)" d="M595.77 659.172C599.825 658.875 606.61 659.377 609.795 662.124C610.96 663.129 611.462 663.975 611.571 665.499C611.79 668.566 609.122 672.03 607.182 674.2C597.963 684.512 585.007 688.596 571.645 689.522C567.533 689.351 559.557 689.045 556.254 686.698C556.187 685.172 555.968 684.366 556.752 682.995C562.992 672.085 583.829 662.067 595.77 659.172Z"/>
	<path fill="#F3AE08" transform="matrix(0.0888672 0 0 0.0888672 6.10352e-05 0)" d="M1442.02 331.499C1445.99 331.225 1452.68 330.031 1456.27 331.817C1458.83 333.094 1459.1 333.94 1459.97 336.478C1459.6 338.971 1458.67 340.72 1457.15 342.672C1449.26 352.774 1434.71 360.08 1422.23 361.568C1418.39 362.074 1413.92 361.626 1410.16 360.668C1407.35 359.951 1406.7 358.887 1405.28 356.573C1405.01 353.78 1406.08 351.546 1407.61 349.285C1415.46 337.702 1429.1 333.96 1442.02 331.499Z"/>
	<path fill="#F3AE08" transform="matrix(0.0888672 0 0 0.0888672 6.10352e-05 0)" d="M611.633 730.176C623.507 730.301 636.219 731.729 647.486 735.656C655.357 738.4 665.172 743.034 668.829 751.022C670.872 755.482 670.531 759.194 668.85 763.669C659.923 766.48 650.481 764.961 642.058 761.241C629.022 755.484 616.807 743.596 611.633 730.176Z"/>
	<path fill="#F3AE08" transform="matrix(0.0888672 0 0 0.0888672 6.10352e-05 0)" d="M1358.86 254.498C1365.49 253.236 1371.59 254.22 1377.83 256.758C1389.87 261.657 1411.28 279.026 1415.87 291.116C1416.7 293.325 1416.66 294.058 1415.69 296.121L1412.22 296.65C1400.87 292.594 1389.32 290.048 1378.33 284.826C1370.13 280.93 1360.45 275.455 1357.4 266.37C1355.81 261.624 1356.6 258.838 1358.86 254.498Z"/>
	<path fill="#F3AE08" transform="matrix(0.0888672 0 0 0.0888672 6.10352e-05 0)" d="M1448.77 252.499C1450.95 252.208 1453.31 252.02 1455.5 252.185C1465.36 252.926 1474.69 260.733 1480.69 268.087C1487.63 276.585 1497.53 293.777 1496.14 305.029C1495.89 307.061 1495.78 307.524 1494.17 308.812L1490.36 307.712C1485.68 299.216 1467.06 288.629 1458.98 282.225C1452.94 277.43 1445.5 271.047 1444.72 262.874C1444.29 258.409 1446.01 255.807 1448.77 252.499Z"/>
	<path fill="#F3AE08" transform="matrix(0.0888672 0 0 0.0888672 6.10352e-05 0)" d="M1530.05 277.499C1530.97 277.305 1531.86 277.166 1532.8 277.069C1539.6 276.368 1545.6 279.295 1550.76 283.571C1561.97 292.855 1569.42 309.372 1570.56 323.835C1570.9 328.135 1570.93 332.08 1568.02 335.425L1564.47 335.503C1563.42 333.132 1559.4 330.283 1557.44 328.475C1546.93 318.781 1527.47 303.605 1526.03 288.477C1525.56 283.625 1527.09 281.157 1530.05 277.499Z"/>
	<path fill="#F3AE08" transform="matrix(0.0888672 0 0 0.0888672 6.10352e-05 0)" d="M466.142 688.265C466.276 688.313 466.412 688.357 466.545 688.407C480.676 693.717 503.491 721.29 509.454 735.218C511.556 740.129 511.085 743.34 509.131 748.207C506.601 749.379 503.738 750.142 500.926 750.004C493.318 749.633 486.388 744.544 481.534 739.046C468.864 724.696 465.008 706.954 466.142 688.265Z"/>
	<path fill="#F3AE08" transform="matrix(0.0888672 0 0 0.0888672 6.10352e-05 0)" d="M538.74 716.513C555.098 720.953 576.577 734.726 585.768 749.252C590.384 756.548 591.204 762.085 589.363 770.388C587.934 770.937 586.479 771.473 584.981 771.802C577.925 773.348 570.208 770.877 564.415 766.852C548.668 755.909 541.792 734.549 538.74 716.513Z"/>
	<path fill="#f2f2f2" transform="matrix(0.0888672 0 0 0.0888672 6.10352e-05 0)" d="M953.128 446.855C957.931 443.663 965.604 438.291 971.377 437.707C973.667 437.475 974.17 437.732 975.842 439.07C975.988 442.719 966.841 448.59 964.359 452.349Q963.667 453.389 963.098 454.501Q962.528 455.613 962.088 456.782Q961.647 457.951 961.342 459.162Q961.036 460.373 960.87 461.611C958.736 477.362 959.869 547.704 962.849 562.786C966.768 567.757 976.581 573.125 977.86 578.95C969.274 580.895 959.263 574.209 952.099 570.276L950.653 571.155C944.879 574.649 936.353 580.42 929.381 578.706L928.942 577.27C931.346 572.219 938.928 566.859 943.129 562.816C944.89 549.087 944.273 534.714 944.264 520.882L944.12 457.959C939.643 450.946 931.812 446.071 928.846 438.124C938.169 438.63 945.022 442.644 953.128 446.855Z"/>
	<path fill="#f2f2f2" transform="matrix(0.0888672 0 0 0.0888672 6.10352e-05 0)" d="M1045.61 433.471C1048.31 433.115 1050.46 433.138 1053.16 433.528L1054.17 434.952C1053.76 435.91 988.451 489.988 980.061 498.935C1000.01 519.116 1018.6 540.786 1038.88 560.571C1042.93 564.522 1047.1 568.402 1051.58 571.873C1055.29 574.749 1060.31 576.924 1063.21 580.606L1062.44 581.87C1058.03 582.382 1053.48 580.847 1049.21 579.802C1045.4 575.021 1027.83 568.754 1021.44 563.768C999.799 546.895 980.472 524.822 963.847 503.037C968.906 497.266 975.429 492.089 981.102 486.891C993.944 475.123 1006.31 463.643 1017.38 450.121C1015.11 447.847 1012.08 445.594 1011.85 442.192C1015.65 437.169 1035.93 440.162 1045.61 433.471Z"/>
	<path fill="#f2f2f2" transform="matrix(0.0888672 0 0 0.0888672 6.10352e-05 0)" d="M1448.55 438.498C1455.73 438.235 1463.87 439.846 1471.21 440.131C1499.31 441.222 1527.74 442.238 1555.55 437.293C1559.03 443.047 1559.34 456.321 1558.66 463.144C1558.42 465.464 1558.07 466.718 1556.22 468.184C1549.56 466.28 1554.12 459.499 1550.16 455.207C1542.56 446.959 1520.36 449.655 1509.94 449.818C1517.84 461.08 1507.83 536.54 1513.12 557.995C1514.07 561.838 1516.28 565.144 1518.43 568.411C1522.91 570.307 1528.56 572.225 1532.01 575.699L1531.82 577.348C1531.31 577.602 1531.05 577.74 1530.49 577.962C1522.49 581.117 1509.53 571.102 1502.18 567.911C1501.91 568.579 1501.85 568.829 1501.5 569.407C1499.19 573.276 1494.62 575.533 1490.43 576.656C1486.8 577.631 1481.28 579.054 1477.79 577.089C1477.57 576.557 1477.07 576.061 1477.14 575.491C1477.41 573.395 1493.56 565.285 1494.91 556.836C1496.92 544.23 1498.51 457.02 1493.58 450.36C1493.44 450.326 1493.3 450.286 1493.16 450.258C1483.71 448.407 1462.67 446.539 1456.68 455.439C1454.47 458.713 1453.65 462.455 1450.29 464.626L1448.94 463.952C1446.01 458.152 1446.9 444.832 1448.55 438.498Z"/>
	<path fill="#f2f2f2" transform="matrix(0.0888672 0 0 0.0888672 6.10352e-05 0)" d="M1104.33 437.494C1116.42 436.023 1133.84 435.94 1145.35 439.967C1146.12 441.443 1146.73 442.816 1146.96 444.48C1148.29 454.003 1148.79 464.38 1142.7 472.349C1142.7 471.972 1142.71 471.594 1142.69 471.218C1142.42 464.422 1136.69 454.323 1131.68 449.93C1126.37 445.278 1119.51 443.354 1112.52 443.843C1105.23 444.353 1096.43 447.529 1091.6 453.267C1087.71 457.892 1085.3 465.693 1085.79 471.706C1087.78 495.68 1129.87 497.773 1145.38 511.161C1151.88 516.778 1156.16 524.485 1156.75 533.122C1157.42 542.903 1153.55 554.318 1147.1 561.714C1137.45 572.808 1122.58 578.317 1108.25 579.459C1095.32 581.522 1081.13 575.57 1068.66 572.769C1072.27 566.135 1072.87 546.555 1071.6 539.012C1079.38 547.64 1079.64 562.63 1090.08 568.444C1097.73 572.706 1111.32 571.842 1119.38 569.371C1126.82 567.088 1134.05 562.263 1137.63 555.168C1140.67 549.144 1140.84 541.649 1138.62 535.322C1132.05 516.573 1105.55 516.071 1090.18 508.231C1081.9 504.009 1074.8 497.628 1072.02 488.527C1069.03 478.724 1070.7 465.335 1075.54 456.312C1081.56 445.078 1092.85 440.942 1104.33 437.494Z"/>
	<path fill="#F3AE08" transform="matrix(0.0888672 0 0 0.0888672 6.10352e-05 0)" d="M1506.03 674.501C1515.37 674.052 1535.56 670.813 1542.92 676.747C1544.05 679.356 1543.91 679.85 1543.43 682.692C1541.13 684.32 1536.98 684.107 1534.12 684.191C1518.76 684.645 1503.22 683.977 1487.83 683.987L1384.63 684.196L1031.75 683.894C1021.84 683.845 1006.43 685.823 997.099 682.977C996.393 681.835 995.911 680.84 995.839 679.481C995.735 677.533 995.584 676.89 996.958 675.369C1008.12 673.285 1021.5 675.021 1033 674.998L1122.88 674.883L1371.71 674.92C1416.35 674.926 1461.44 676.246 1506.03 674.501Z"/>
	<path fill="#F3AE08" transform="matrix(0.0888672 0 0 0.0888672 6.10352e-05 0)" d="M1018.12 339.443C1026.92 339.186 1036.69 338.181 1045.39 339.77C1048.41 340.323 1051.92 341.092 1053.74 343.766L1053.03 345.564C1048.71 348.241 1043.85 348.85 1038.84 349.076C1023.18 349.78 1006.97 348.539 991.229 348.559L870.474 348.682L495.226 348.721C485.22 349.072 466.97 351.782 458.605 346.345C458.154 343.906 458.045 343.844 459.308 341.736C462.104 340.191 464.919 339.794 468.078 339.634C478.852 339.089 489.961 339.928 500.772 339.922L581.851 339.923L867.846 339.937L961.203 339.941C980.135 339.939 999.218 340.437 1018.12 339.443Z"/>
	<path fill="#F3AE08" transform="matrix(0.0888672 0 0 0.0888672 6.10352e-05 0)" d="M1104.27 299.495C1114.91 298.521 1126.94 299.883 1136.68 304.507C1140.99 306.553 1146.05 309.584 1147.76 314.267C1146.88 315.773 1145.99 316.846 1144.58 317.879C1125.78 331.598 1105.48 328.256 1084.03 325.026C1097.03 328.442 1108.63 335.572 1122.25 336.942C1154.5 340.186 1189.09 326.879 1220.52 320.437C1251.42 314.102 1282.93 308.463 1314.33 305.382C1406.97 296.295 1496.18 311.959 1576.96 359.06C1595.84 370.064 1614.06 381.824 1630.95 395.729C1636.34 400.164 1656.2 416.207 1656.86 422.938L1655.58 424.38C1649.77 424.999 1642.39 415.308 1637.18 412.504C1637.04 412.141 1636.83 411.517 1636.61 411.152C1629.74 399.664 1587.94 371.496 1575.16 367.406C1574.96 367.613 1574.77 367.828 1574.56 368.029C1568.25 374.249 1549.1 376.908 1540.49 376.84C1532.65 376.778 1522.52 375.272 1516.88 369.276C1514.64 366.884 1514.46 364.746 1514.6 361.615C1515.37 360.021 1516.18 358.702 1517.59 357.617C1526.06 351.096 1542.21 352.766 1552.3 354.024C1547.19 345.351 1514.41 335.209 1503.64 331.667C1404.34 299.001 1314 305.694 1212.84 326.846C1184.3 332.815 1152.5 344.695 1123.31 342.546C1105.23 341.215 1090.3 334.195 1075.72 323.708C1071.17 320.439 1066.96 316.202 1061.88 313.807C1061.66 313.702 1061.43 313.603 1061.21 313.501C1075.93 308.962 1088.86 302.39 1104.27 299.495Z"/>
	<path fill="#F3AE08" transform="matrix(0.0888672 0 0 0.0888672 6.10352e-05 0)" d="M382.985 597.328C384.634 597.524 386.358 597.737 387.69 598.828C398.083 607.343 407.109 618.383 417.393 627.319C428.908 637.324 441.224 646.448 453.348 655.698Q455.874 654.341 458.49 653.167C470.705 647.692 489.174 645.631 501.68 650.612C506.033 652.346 509.648 654.71 511.576 659.102C511.554 661.501 511.659 662.536 509.957 664.437C503.571 671.571 486.268 669.877 477.375 669.693C564.194 719.405 683.082 720.163 777.468 694.125C812.958 684.334 850.114 667.414 887.185 666.378C910.653 665.722 929.968 675.274 946.671 691.16C940.141 696.593 932.04 700.73 924.498 704.56C917.916 707.231 911.328 709.111 904.229 709.725C892.189 710.765 874.437 708.06 865.125 699.94C862.56 697.704 861.965 695.764 861.749 692.474C862.344 691.086 862.996 689.698 864.075 688.615C874.594 678.052 903.769 677.816 917.472 678.391C907.217 674.354 897.735 671.935 886.633 672.148C857.46 672.708 827.61 685.052 799.969 693.505Q767.625 703.723 734.291 710.002C690.04 718.203 643.22 720.785 598.49 715.103C531.548 706.599 471.893 681.274 419.413 638.845C408.145 629.735 395.507 620.02 386.719 608.464C383.824 604.657 382.339 602.187 382.985 597.328Z"/>
	<path fill="#f2f2f2" transform="matrix(0.0888672 0 0 0.0888672 6.10352e-05 0)" d="M1226.23 437.498C1233.06 436.998 1239.88 436.625 1246.69 437.59C1257.35 439.1 1267.96 443.518 1274.51 452.406C1280.09 459.987 1281.7 469.776 1280.16 478.947Q1279.96 480.073 1279.71 481.188Q1279.45 482.302 1279.14 483.403Q1278.83 484.504 1278.47 485.588Q1278.1 486.672 1277.69 487.737Q1277.27 488.802 1276.8 489.845Q1276.33 490.888 1275.81 491.907Q1275.3 492.926 1274.73 493.918Q1274.16 494.909 1273.54 495.872Q1272.92 496.835 1272.26 497.766Q1271.59 498.697 1270.89 499.594Q1270.18 500.491 1269.42 501.352Q1268.67 502.213 1267.88 503.036Q1267.08 503.859 1266.25 504.641Q1265.42 505.424 1264.54 506.165Q1263.67 506.905 1262.77 507.602Q1261.86 508.299 1260.92 508.95C1241.52 522.46 1222.56 516.977 1201.54 513.092C1201.69 513.431 1201.84 513.773 1201.96 514.121C1204.24 520.458 1206.01 556.284 1203.17 562.398C1205 563.07 1206.82 563.969 1208.49 564.967C1213.16 567.755 1221.76 572.628 1223.11 578.087C1220.6 579.682 1219.1 579.178 1216.17 579.046C1197.19 564.341 1188.34 580.054 1171.52 579.583L1170.5 578.458C1172.25 571.816 1181.37 568.686 1183.78 562.316C1183.83 562.174 1183.87 562.028 1183.92 561.884C1189.89 554.374 1187.3 492.928 1187.12 479.852C1186.82 456.833 1186.21 456.934 1169.92 441.056L1170.08 439.858C1170.4 439.815 1170.71 439.759 1171.03 439.728C1175.94 439.243 1183.95 443.375 1187.5 446.588C1200.41 444.821 1213.27 439.875 1226.23 437.498ZM1224.43 444.498C1218.65 445.966 1210.92 447.981 1207.59 453.479C1201.91 462.862 1200.95 493.271 1203.85 503.36C1204.41 505.306 1206.31 506.813 1208.04 507.76C1216.09 512.18 1229.44 512.189 1238.19 509.645C1246.04 508.035 1252.77 503.909 1257.3 497.17C1262.7 489.124 1264.42 478.602 1262.36 469.179Q1262.19 468.423 1261.99 467.676Q1261.78 466.929 1261.54 466.193Q1261.3 465.456 1261.02 464.733Q1260.75 464.009 1260.43 463.3Q1260.12 462.591 1259.78 461.898Q1259.43 461.204 1259.05 460.529Q1258.67 459.853 1258.26 459.197Q1257.85 458.541 1257.41 457.905Q1256.96 457.27 1256.49 456.657Q1256.02 456.044 1255.51 455.454Q1255.01 454.865 1254.48 454.301Q1253.95 453.737 1253.39 453.2Q1252.83 452.662 1252.25 452.152Q1251.67 451.643 1251.06 451.162Q1250.45 450.681 1249.82 450.231Q1249.19 449.78 1248.54 449.361C1241.02 444.624 1233.12 443.703 1224.43 444.498Z"/>
	<path fill="#F3AE08" transform="matrix(0.0888672 0 0 0.0888672 6.10352e-05 0)" d="M509.649 391.476C571.492 390.245 633.498 391.333 695.356 391.505L975.718 391.66L1382.39 391.702C1436.75 391.668 1491.18 390.552 1545.53 391.04C1551.36 391.093 1559.56 390.395 1564.89 392.827C1567.08 393.831 1567.1 394.82 1567.81 396.975C1561.91 402.806 1526.47 400.571 1516.75 400.533L825.115 400.449L581.93 400.248C545.912 400.215 509.635 401.31 473.665 400.472C469.186 400.367 463.94 400.475 459.946 398.241C458.061 397.186 457.431 396.962 456.828 394.775C462.866 389.933 499.694 391.589 509.649 391.476Z"/>
	<path fill="#F3AE08" transform="matrix(0.0888672 0 0 0.0888672 6.10352e-05 0)" d="M462.18 623.445L1276.9 623.078L1470.31 622.892C1483.84 622.88 1497.38 623.119 1510.9 623.029C1519.79 622.971 1531.03 621.372 1539.65 623.324C1542.39 623.944 1543.27 624.466 1544.68 626.838L1543.96 629.365C1542.05 631.389 1539.77 631.534 1537.16 632.029C1516.77 635.275 1491.93 632.03 1471.11 632.018L1305.51 632.175L686.449 632.612L533.226 632.842C512.397 632.85 491.223 634.177 470.445 633.333C466.799 633.185 462.968 633.056 459.55 631.687C457.893 629.925 457.855 629.857 457.696 627.446C459.11 624.857 459.497 624.754 462.18 623.445Z"/>
	<path fill="#f2f2f2" transform="matrix(0.0888672 0 0 0.0888672 6.10352e-05 0)" d="M535.58 438.389C540.776 437.571 546.951 438.108 552.041 439.196C561.828 441.289 571.396 446.515 576.845 455.143C580.33 460.661 581.69 466.865 580.185 473.268C577.317 485.465 565.839 490.932 556.124 497.111C564.912 499.658 573.136 501.739 580.024 508.175C586.729 514.44 590.241 523.113 590.435 532.234Q590.453 533.284 590.418 534.333Q590.384 535.382 590.298 536.429Q590.212 537.475 590.074 538.516Q589.937 539.557 589.748 540.589Q589.559 541.622 589.32 542.644Q589.08 543.667 588.791 544.676Q588.501 545.685 588.162 546.678Q587.823 547.672 587.435 548.647Q587.047 549.623 586.612 550.578Q586.176 551.534 585.694 552.466Q585.212 553.399 584.684 554.307Q584.157 555.214 583.585 556.095Q583.014 556.975 582.399 557.827Q581.785 558.678 581.129 559.498Q580.473 560.318 579.778 561.104Q579.082 561.891 578.349 562.642C565.503 575.994 547.885 578.735 530.289 578.901C521.897 577.527 513.06 574.624 504.584 574.248C495.23 573.833 484.866 576.71 475.532 577.965L475.15 577.428L474.288 577.887C473.925 575.65 484.292 568.065 485.896 565.007C493.021 551.426 491.819 469.667 487.078 453.839C482.5 450.185 477.047 446.574 473.573 441.823L474.269 440.802C480.74 439.94 487.357 443.412 493.944 443.431C507.639 443.471 521.961 440.109 535.58 438.389ZM512.796 500.004C508.673 503.534 507.972 505.762 507.561 511.134C506.808 520.968 506.521 557.914 512.477 565.157C516.175 569.654 524.681 570.686 530.055 570.901C540.398 571.316 549.107 568.588 557.588 562.789C564.878 555.769 570.168 546.264 570.378 535.94C570.552 527.33 566.836 519.347 560.894 513.236C550.4 502.441 537.167 499.916 522.777 499.87C519.495 499.859 516.047 499.655 512.796 500.004ZM526.446 446.208C520.866 447.21 514.308 447.571 510.763 452.584C505.868 459.507 504.405 470.385 505.889 478.6C506.773 483.495 509.081 488.098 513.348 490.861C521.53 496.157 532.59 493.652 541.501 491.742C548.865 489.405 556.81 486.047 560.457 478.713C562.711 474.181 562.744 469.233 561.062 464.513C558.547 457.455 552.505 451.907 545.826 448.797C539.554 445.876 533.264 445.538 526.446 446.208Z"/>
	<path fill="#f2f2f2" transform="matrix(0.0888672 0 0 0.0888672 6.10352e-05 0)" d="M838.152 439.425C854.565 439.495 870.143 443.216 882.986 453.858C897.952 466.259 906.22 485.444 907.869 504.551C909.419 522.505 904.419 539.564 892.731 553.369C878.643 570.008 859.926 577.085 838.672 578.84C822.077 578.702 805.527 574.232 792.632 563.444C778.158 551.335 769.93 532.581 768.404 513.984C766.864 495.213 771.955 477.235 784.321 462.847C798.429 446.433 817.269 441.069 838.152 439.425ZM827.026 447.174C813.355 450.154 802.688 455.357 794.816 467.51C784.883 482.844 783.386 502.277 787.319 519.798C791.289 537.486 801.071 553.144 816.61 562.84C827.349 569.542 838.096 571.629 850.516 569.943C864.745 566.159 875.928 559.826 883.58 546.677C892.618 531.147 892.945 512.003 888.267 495.026C883.632 478.205 873.05 462.519 857.719 453.752C848.178 448.297 837.932 446.037 827.026 447.174Z"/>
	<path fill="#f2f2f2" transform="matrix(0.0888672 0 0 0.0888672 6.10352e-05 0)" d="M677.735 439.423C693.474 438.57 710.67 443.599 723.01 453.484C737.853 465.375 747.386 484.467 749.334 503.278C751.139 520.711 744.808 539.025 733.762 552.474C719.892 569.362 701.523 576.57 680.248 578.628C662.843 579.246 644.983 574.558 631.507 563.201C617.163 551.112 608.827 532.741 607.315 514.211C605.78 495.404 610.98 477.427 623.374 463.024C637.67 446.409 656.612 441.095 677.735 439.423ZM670.017 447.282C656.344 449.222 645.074 453.917 636.444 465.234C626.367 478.447 623.376 495.185 625.685 511.374C628.37 530.204 637.832 548.537 653.209 560.051C663.462 567.728 675.118 571.554 687.988 570.956C702.308 567.893 713.715 561.822 721.984 549.237C731.234 535.16 733.94 517.014 730.434 500.677C726.55 482.582 717.141 465.999 701.305 455.872C692.486 450.232 680.611 446.369 670.017 447.282Z"/>
	<path fill="#f2f2f2" transform="matrix(0.0888672 0 0 0.0888672 6.10352e-05 0)" d="M1352.87 438.499C1373.71 435.919 1394.89 439.203 1411.91 452.124C1426.42 463.144 1434.95 478.662 1437.41 496.666C1439.95 515.272 1435.28 534.762 1423.81 549.718C1412.23 564.806 1394.02 574.798 1375.22 577.217C1374.83 577.351 1374.44 577.479 1374.04 577.587C1360.23 581.318 1339.9 575.211 1327.87 568.329Q1326.38 567.497 1324.94 566.591Q1323.5 565.685 1322.11 564.708Q1320.71 563.731 1319.37 562.685Q1318.02 561.64 1316.73 560.528Q1315.44 559.416 1314.21 558.241Q1312.98 557.066 1311.81 555.83Q1310.64 554.595 1309.53 553.302Q1308.42 552.009 1307.38 550.663Q1306.34 549.316 1305.36 547.919Q1304.39 546.521 1303.49 545.077Q1302.59 543.633 1301.76 542.145Q1300.93 540.657 1300.18 539.13Q1299.42 537.602 1298.75 536.039Q1298.07 534.475 1297.48 532.88Q1296.88 531.285 1296.37 529.662Q1295.85 528.039 1295.42 526.392C1290.78 509.064 1293.03 488.879 1302.1 473.327C1313.43 453.882 1331.77 444.076 1352.87 438.499ZM1354.92 445.499C1340 448.997 1327.3 455.879 1318.91 469.238C1310.05 483.37 1309.13 501.584 1312.92 517.491C1317.07 534.96 1326.97 551.133 1342.47 560.675C1351.16 566.027 1362.45 569.661 1372.75 568.937C1385.73 568.054 1397.38 564.101 1406.19 554.049C1416.72 542.034 1419.77 525.598 1418.55 510.08C1417.05 491.176 1409.09 470.85 1394.42 458.308C1383.98 449.381 1370.01 444.364 1356.23 445.367C1355.79 445.399 1355.35 445.449 1354.92 445.499Z"/>
	<path fill="#f2f2f2" transform="matrix(0.0888672 0 0 0.0888672 6.10352e-05 0)" d="M282.716 275.289C300.131 273.333 316.33 273.315 333.733 275.368C327.009 285.581 320.812 295.16 317.843 307.153C327.026 297.127 333.655 285.615 344.132 276.699C349.368 277.389 354.611 278.003 359.766 279.174C351.796 286.726 344.098 294.312 337.811 303.358C347.323 296.021 357.223 288.64 366.155 280.611C378.979 283.737 390.477 288.334 402.48 293.776C390.626 300.996 378.792 308.385 366.388 314.635C356.357 319.688 345.54 323.847 335.79 329.329C335.372 343.694 331.306 355.579 326.318 368.946C347.399 373.966 366.699 384.701 378.277 403.615C382.398 410.349 385.099 417.676 387.915 425.023C394.804 427.869 401.904 430.266 407.02 435.941L407.713 438.445C406.402 440.749 405.43 441.926 402.785 442.73C399.723 443.661 396.171 443.96 392.997 444.429C397.945 458.41 399.901 469.534 396.193 484.277C400.136 493.198 414.352 508.192 413.709 517.272C412.237 520.086 411.027 521.048 407.912 522.012C404.883 522.95 401.034 523.455 398.833 525.855C395.669 535.164 395.892 549.548 391.925 556.727C393.313 563.769 395.327 570.444 391.127 576.95C388.545 580.949 384.39 583.05 379.811 583.93C365.966 586.589 350.939 581.988 337.657 578.384C329.473 590.092 324.268 602.034 320.371 615.759C353.6 635.081 383.55 655.64 411.203 682.541C295.934 661.373 161.778 706.113 58.9826 755.516C85.4982 714.66 110.421 663.288 149.516 633.641C165.151 597.056 178.937 604.821 205.183 583.932C206.75 577.139 208.267 570.362 209.511 563.501Q201.802 565.903 194.137 568.441C196.783 563.605 199.079 559.221 200.5 553.849C200.612 553.427 200.708 553.002 200.804 552.576C202.287 551.955 202.897 551.67 204.536 552.018C204.638 553.926 204.551 554.558 205.61 556.2C212.405 557.396 229.353 548.061 235.045 544.142L235.194 543.057C228.728 542.089 220.369 552.132 209.614 549.321C208.946 548.053 209.092 547.845 209.304 546.402C207.976 543.509 206.562 472.704 207.14 465.088C204.266 467.026 203.646 467.889 200.1 467.77C178.341 469.341 155.677 489.12 139.578 502.257C140.505 494.819 141.693 487.302 141.688 479.798C148.721 471.476 153.394 461.729 158.437 452.135C152.007 457.891 146.101 463.56 140.957 470.531C141.04 455.855 141.445 440.305 137.985 425.971C150.664 417.658 163.166 409.402 174.891 399.754C162.039 403.482 150.252 406.889 138.646 413.771C140.262 403.431 141.672 393.007 144.131 382.827C159.221 378.841 173.24 373.721 187.516 367.434Q165.865 368.584 144.463 372.048C148.553 365.22 151.597 357.907 154.76 350.623C170.57 350.879 186.379 351.237 202.188 350.741C187.566 346.706 173.095 342.816 157.939 341.372C168.031 328.341 178.507 314.537 191.439 304.185C201.187 312.6 211.217 321.517 222.067 328.478C214.79 318.622 207.587 307.354 197.644 300.015C203.886 296.363 210.095 292.519 216.638 289.428C225.141 299.511 233.441 310.452 242.87 319.647C237.453 308.589 232.372 297.366 226.965 286.313C241.778 281.888 257.962 278.133 273.402 276.595C272.783 284.806 271.82 293.156 271.804 301.386C276.364 293.028 278.845 283.929 282.716 275.289ZM381.129 446.058C361.798 451.764 341.501 459.299 326.366 473.104C323.738 485.463 319.991 497.195 316.475 509.301C318.243 514.733 330.81 532.584 329.879 536.299C324.596 534.685 319.656 529.106 317.14 524.34C315.144 520.558 313.405 516.687 311.166 513.036C302.724 520.75 293.289 527.04 284.605 534.42C264.681 551.351 249.758 568.633 223.014 574.729L214.659 584.561C226.215 588.757 237.248 592.768 247.989 598.839C257.861 604.419 267.111 610.534 276.131 617.418C283.303 622.892 290.579 629.505 298.458 633.819C301.112 635.272 303.824 636.045 306.862 636.091C312.97 614.6 319.727 595.413 331.11 576.042C318.54 572.214 298.56 566.497 291.901 553.812C290.52 551.183 290.037 548.352 291.016 545.49C291.697 543.499 292.361 542.093 294.148 540.881C301.192 544.164 300.759 555.153 307.567 559.536C321.807 568.705 361.765 581.205 377.892 577.813C380.718 577.219 383.892 575.921 385.427 573.334C386.863 570.916 386.864 567.762 386.058 565.122C384.934 561.438 381.225 556.745 383.376 552.926C384.096 551.646 385.763 550.32 386.834 549.309C383.056 544.722 375.383 545.845 372.115 541.346C372.804 539.482 372.873 539.437 374.711 538.63C379.064 536.718 385.169 536.57 389.918 535.877C391.287 528.609 392.123 524.45 397.527 519.029C401.102 518.137 404.672 517.196 408.271 516.413C400.325 505.432 392.23 495.151 387.14 482.48C392.575 475.572 392.665 470.578 391.635 461.988C391.072 457.291 389.338 449.396 385.317 446.352C384.086 445.42 382.605 445.937 381.129 446.058ZM291.593 327.355C257.624 331.268 223.331 348.026 201.79 375.144C177.544 405.666 171.821 433.342 168.803 471.37C174.027 468.99 179.37 466.762 184.228 463.681C183.961 428.19 192.813 396.729 218.27 370.963Q219.303 369.928 220.361 368.918Q221.419 367.909 222.501 366.925Q223.583 365.941 224.689 364.984Q225.794 364.026 226.923 363.096Q228.051 362.166 229.202 361.263Q230.352 360.36 231.524 359.485Q232.696 358.611 233.889 357.764Q235.082 356.918 236.295 356.101Q237.508 355.284 238.74 354.497Q239.973 353.709 241.224 352.952Q242.475 352.194 243.744 351.467Q245.013 350.74 246.299 350.044Q247.585 349.348 248.888 348.684Q250.19 348.019 251.509 347.386Q252.827 346.753 254.16 346.152Q255.493 345.551 256.841 344.982Q258.188 344.413 259.549 343.878Q260.91 343.342 262.283 342.839Q263.656 342.336 265.041 341.867Q266.427 341.397 267.823 340.961Q269.219 340.526 270.625 340.124Q272.031 339.722 273.446 339.354Q274.862 338.986 276.286 338.653Q277.71 338.319 279.141 338.02Q280.573 337.721 282.011 337.457Q283.45 337.193 284.894 336.964Q286.338 336.734 287.788 336.54Q289.237 336.345 290.691 336.186Q292.145 336.027 293.602 335.903Q295.059 335.779 296.519 335.69Q297.979 335.601 299.44 335.548Q300.902 335.494 302.364 335.476C307.01 335.452 316.225 335.059 319.553 338.322L319.548 339.888C281.781 341.032 246.902 349.943 220.197 378.331C203.167 396.436 189.487 425.026 190.086 450.292C190.16 453.435 190.149 457.478 192.243 459.99C194.447 459.347 194.884 458.366 195.958 456.41C200.417 448.291 201.219 438.543 204.786 430.058C215.881 403.673 241.846 381.903 268.919 373.511C285.383 368.408 301.938 367.816 319.014 368.065C322.555 359.042 330.759 343.758 326.616 334.309C325.183 331.04 322.29 329.032 318.993 327.9C311.668 325.384 299.161 326.15 291.593 327.355ZM296.276 374.32C264.9 378.586 239.395 391.282 220.092 416.782C217.54 420.154 214.388 424.265 213.954 428.577L216.672 429.37L215.876 429.104C216.063 429.044 216.251 428.99 216.436 428.925C221.62 427.103 224.781 420.006 228.078 415.805C244.911 394.359 265.604 383.92 292.229 379.616C283.579 383.554 272.566 388.128 269.053 397.826C268.009 400.707 268.028 403.964 269.359 406.754C270.942 410.071 274.25 412.321 277.645 413.484C288.81 417.306 299.592 412.545 309.773 408.339Q306.331 413.372 303.406 418.723Q300.481 424.073 298.103 429.688C304.007 432.267 309.991 435.245 316.09 437.288C329.387 433.202 342.292 426.651 354.981 420.95C358.909 419.017 363.083 417.227 366.773 414.872C349.149 392.506 336.558 393.68 313.625 381.444C335.013 383.38 352.478 388.851 366.597 405.891C369.741 409.685 372.208 414.051 374.696 418.291C357.11 424.956 336.624 431.207 323.343 445.159C342.134 437.635 360.433 429.041 379.143 421.367C371.169 402.241 359.521 388.143 340.045 380.08C326.013 374.271 311.285 373.112 296.276 374.32ZM277.741 441.147C278.07 444.19 278.664 447.483 278.547 450.529L276.475 451.748L276.765 451.953C274.674 449.442 273.021 447.052 269.759 446.095C265.904 446.26 261.715 450.483 259.235 453.192C253.147 459.843 249.528 468.595 250.092 477.68C250.684 487.207 256.173 497.243 263.413 503.371C269.918 508.877 276.384 510.092 284.544 511.117C295.998 509.876 305.781 507.26 313.274 497.721C319.097 490.306 321.372 480.848 320.22 471.559C319.093 462.469 314.624 453.679 307.316 448.027C298.518 441.222 288.37 440.674 277.741 441.147ZM208.905 591.001L195.208 597.983C220.524 604.355 245.642 614.837 266.525 630.725C251.349 625.106 189.954 603.781 177.549 607.202C176.226 608.498 175.709 608.707 175.396 610.579L179.875 610.7L179.021 611.212C218.481 617.948 232.149 628.013 267.61 643.424C245.725 639.091 224.094 634.924 201.877 632.609C192.924 631.525 166.38 626.689 158.96 631.663C159.889 634.041 161.845 634.872 164.167 635.833C171.192 638.743 181.557 638.072 189.249 639.282C226.029 645.067 266.27 650.64 296.975 672.938L309.638 673.561C305.366 663.622 301.35 652.965 295.174 644.034C281.149 623.754 246.728 604.145 224.268 595.16C219.311 593.177 214.226 591.638 208.905 591.001ZM177.933 644.713C163.606 664.738 154.61 687.175 145.754 710.004Q157.304 706.556 168.752 702.785L181.036 698.74C185.646 682.063 194.177 661.833 206.727 649.512C197.292 647.482 187.595 645.148 177.933 644.713ZM149.592 641.926C118.919 665.678 98.1879 706.502 77.6814 739.022L91.7451 732.445L102.891 726.969C113.214 698.846 140.807 662.141 164.018 642.983C159.249 642.494 154.39 641.783 149.592 641.926ZM317.83 622.869C315.748 628.165 314.401 633.631 313.2 639.185C331.998 648.173 350.062 656.788 366.064 670.414L385.247 671.448L387.459 671.026C387.29 668.594 385.618 667.655 383.826 666.107C369.479 653.715 335.063 629.36 317.83 622.869ZM207.14 465.088C206.562 472.704 207.976 543.509 209.304 546.402C222.233 540.71 239.531 533.653 248.505 522.127C250.353 519.754 254.248 514.046 253.879 511.1C245.357 511.282 228.729 533.186 216.331 534.349C213.993 534.568 213.525 534.248 211.889 532.818C211.222 530.218 211.038 527.749 212.6 525.398C217.261 518.383 240.431 510.809 246.713 495.884C247.439 494.158 247.313 494.015 246.633 492.279C239.402 491.137 222.966 508.921 215.727 512.764L215.338 512.967C204.927 489.206 211 460.666 212.422 435.657C207.772 444.597 207.887 455.223 207.14 465.088ZM227.67 653.453C224.48 664.895 218.685 675.802 216.261 687.349C223.189 685.663 229.732 684.272 236.847 683.709C237.001 683.696 237.156 683.688 237.31 683.677C240.688 682.698 242.295 682.247 244.124 678.997C247.502 672.997 248.219 665.695 250.706 659.314C243.061 657.266 235.42 655.064 227.67 653.453ZM379.421 428.976C364.117 434.538 332.621 444.391 323.145 457.721L323.763 460.481C328.867 461.574 332.642 459.45 336.987 457.139C355.958 446.813 375.714 439.02 397.475 437.428C392.924 434.986 384.339 429.011 379.421 428.976ZM302.142 644.327C307.139 653.432 312.342 662.479 316.564 671.977L352.264 669.567C351.913 667.524 351.025 667.25 349.401 666.1C337.363 657.576 316.995 646.079 302.142 644.327ZM270.264 665.638C269.731 669.791 269.171 673.695 267.829 677.671L282.766 675.086L284.828 674.262C284.293 672.061 282.354 670.828 280.439 669.658C277.387 667.793 273.819 666.177 270.264 665.638ZM256.787 416.153C253.592 416.937 252.367 416.914 250.063 419.349C249.409 421.85 249.513 421.776 250.813 424.034L253.056 425.212C253.977 424.912 255.139 424.362 256.09 424.294C259.006 424.075 261.2 424.048 263.572 422.097L264.121 419.809C262.5 417.51 261.476 417.088 259.021 415.879L256.787 416.153Z"/>
	<path fill="#f2f2f2" transform="matrix(0.0888672 0 0 0.0888672 6.10352e-05 0)" d="M281.286 454.182C285.057 453.994 289.241 454.679 292.682 456.242C297.891 458.608 301.888 462.822 303.752 468.249Q303.909 468.705 304.043 469.169Q304.176 469.632 304.287 470.102Q304.397 470.571 304.484 471.046Q304.572 471.52 304.635 471.998Q304.698 472.477 304.737 472.957Q304.777 473.438 304.792 473.92Q304.807 474.403 304.799 474.885Q304.79 475.367 304.757 475.848Q304.725 476.33 304.668 476.809Q304.611 477.288 304.531 477.763Q304.45 478.239 304.346 478.71Q304.242 479.181 304.115 479.647Q303.988 480.112 303.837 480.57Q303.687 481.028 303.514 481.479Q303.341 481.929 303.145 482.37Q302.95 482.811 302.733 483.242C299.557 489.681 294.477 492.007 287.969 494.211C284.165 494.391 280.872 493.892 277.434 492.21C271.911 489.507 267.346 485.312 265.39 479.343Q265.108 478.493 264.912 477.62Q264.715 476.747 264.606 475.858Q264.497 474.97 264.477 474.075Q264.456 473.18 264.524 472.287Q264.592 471.395 264.747 470.513Q264.903 469.632 265.145 468.77Q265.388 467.908 265.714 467.075Q266.04 466.241 266.447 465.444C269.589 459.265 274.913 456.202 281.286 454.182ZM281.118 458.87C276.258 461.581 272.012 464.488 270.481 470.152C269.499 473.786 269.843 477.657 271.763 480.924C273.803 484.396 277.52 486.938 281.399 487.924C283.753 488.523 286.608 488.418 289.011 488.147C293.563 485.283 297.812 482.576 298.977 476.965C299.705 473.459 298.877 469.849 296.854 466.912C294.021 462.798 288.692 459.905 283.817 459.144C282.922 459.004 282.022 458.929 281.118 458.87Z"/>
	<path fill="#f2f2f2" transform="matrix(0.0888672 0 0 0.0888672 6.10352e-05 0)" d="M363.685 464.393C371.448 464.723 379.271 464.707 385.14 470.477C385.969 472.971 386.13 472.943 384.985 475.278C382.322 476.099 381.408 475.819 378.777 475.211C372.411 473.554 357.877 474.135 353.745 469.017L354.263 467.154C357.067 465.08 360.331 464.878 363.685 464.393Z"/>
	<path fill="#f2f2f2" transform="matrix(0.0888672 0 0 0.0888672 6.10352e-05 0)" d="M364.473 479.252C369.218 478.79 374.444 478.024 378.632 480.865C381.161 482.581 382.38 484.664 383.012 487.644C382.41 489.951 382.282 490.932 380.55 492.652C377.776 495.407 374.004 495.355 370.37 495.354C368.448 492.84 367.607 489.841 364.97 487.9C363.761 489.239 362.49 490.349 361.093 491.489C358.119 491.364 358.011 491.423 355.836 489.419C355.292 486.644 355.405 485.983 356.265 483.274C358.164 480.569 361.462 480.098 364.473 479.252Z"/>
	<path fill="#f2f2f2" transform="matrix(0.0888672 0 0 0.0888672 6.10352e-05 0)" d="M1758.89 299.678C1760.42 297.448 1760.73 295.08 1761.32 292.512C1762.31 288.259 1763.1 286.76 1766.85 284.432C1769.48 284.299 1770.18 284.084 1772.41 285.385C1772.47 285.943 1772.51 286.193 1772.53 286.796C1772.93 299.439 1751.17 321.124 1743.02 330.801C1739.92 334.478 1737.47 338.578 1734.22 342.109C1734.66 342.922 1735.06 343.745 1735.39 344.613C1741.32 360.26 1759.96 426.035 1753.05 440.912C1766.86 437.304 1805.78 422.004 1816.71 413.835C1815.79 410.266 1811.52 409.477 1811.37 405.072C1811.28 402.487 1812.27 399.646 1813.96 397.721C1815.9 395.528 1818.92 394.371 1821.8 394.137C1825.46 393.839 1829.41 394.824 1832.24 397.242C1834.24 398.954 1835.53 401.382 1835.53 404.055C1835.54 408.047 1833.22 411.881 1830.64 414.746C1851.17 420.299 1886.22 438.041 1907.36 446.894C1921.45 452.798 1976.27 472.22 1984.64 478.854C1985.74 481.243 1985.51 481.921 1985.16 484.576C1982.39 489.4 1976.67 490.803 1972.18 493.609C1969.61 495.214 1969.08 497.616 1968.52 500.398L1968.32 501.395C1966.64 502.777 1965.59 503.291 1963.41 503.467C1959.28 503.799 1958.86 504.072 1955.98 506.837L1955.78 509.164C1950.49 509.747 1945.19 509.38 1939.89 509.16C1938.41 511.31 1938.45 511.376 1935.92 511.973L1936.49 513.184L1938.54 513.835C1939.3 516.07 1939.91 518.895 1941.12 520.892C1946.33 520.74 1957.66 521.773 1961.47 517.755C1962.1 517.086 1961.96 514.919 1961.89 513.972C1961.7 511.276 1960.61 508.413 1961.69 505.841C1963.79 505.032 1963.9 505.34 1965.91 506.108C1968.06 510.111 1967.39 513.413 1966.15 517.722C1965.62 519.545 1964.55 521.887 1962.83 522.811C1961.43 523.56 1960.07 524.328 1958.56 524.838C1961.41 532.477 1957.42 646.032 1956.73 663.053C1962.16 662.259 1967.23 661.02 1972.46 663.133C1975.56 665.514 1975.21 669.362 1976.4 672.78C1977.41 675.665 1981.52 676.469 1984.06 677.606C1985.45 678.228 1987.1 679.333 1987.64 680.794C1988.69 683.584 1989.19 686.366 1987.76 689.174C1983.15 698.215 1965.74 697.852 1957.07 698.418C1930.1 700.18 1903.23 702.704 1876.29 704.842C1858.77 706.231 1840.28 706.61 1823.03 709.891Q1820.95 710.265 1818.92 710.803Q1816.88 711.341 1814.89 712.04Q1812.9 712.738 1810.97 713.593Q1809.04 714.448 1807.19 715.453C1798.38 720.212 1790.13 726.488 1781.66 731.87C1770.31 739.093 1758.53 745.698 1746.8 752.288C1740.42 755.868 1733.86 760.101 1726.9 762.39C1720.38 758.617 1709.25 757.031 1701.73 755.105Q1676.41 748.533 1650.86 742.957C1630.25 738.404 1591.32 732.768 1574.59 722.653C1568.1 718.724 1562.35 712.269 1560.65 704.721C1559.31 698.721 1560.69 692.52 1564.08 687.433C1569.96 678.622 1577.81 676.771 1587.47 674.83C1587.59 671.857 1581.24 661.939 1581.51 654.492C1582.61 623.375 1637.35 627.362 1654.61 610.745C1660.06 605.499 1658.79 582.444 1658.98 574.682C1659.42 556.129 1658.55 539.137 1656.43 520.697C1655.99 516.896 1656.18 512.243 1654.83 508.668C1653.88 506.168 1651.83 504.094 1650.01 502.192C1646.61 501.139 1642.41 500.164 1639.58 497.931C1637.19 496.041 1635.4 494.171 1635.1 491.017C1639.29 480.418 1668.6 480.63 1676.11 471.774C1681.22 463.905 1707.73 396.197 1707.62 388.621C1707.47 376.737 1691.56 381.842 1685.85 376.188C1685.18 374.715 1684.76 373.298 1684.96 371.658C1686.12 362.439 1695.69 342.93 1701.92 335.512C1704.36 332.595 1707.21 330.662 1710.18 328.362C1712.54 326.542 1713.16 325.269 1713.52 322.387C1710.35 320.368 1705.6 322.74 1701.96 321.599C1698.17 320.413 1694.17 316.601 1690.57 314.58C1700.44 309.69 1711.26 295.676 1722.84 294.807C1725.03 294.643 1726.7 295.447 1728.3 296.884C1738.95 306.423 1725.24 317.211 1725.93 326.71C1728.7 326.694 1730.26 325.643 1732.62 324.215C1738.26 320.797 1757.39 305.817 1758.89 299.678ZM1821.43 428.5C1804.32 440.125 1756.6 456.66 1735.28 465.473L1688.88 484.75C1680.38 488.267 1671.41 492.707 1662.47 494.934Q1709.14 494.535 1755.8 493.169C1768.85 492.704 1782.89 493.085 1795.75 490.991C1848.95 489.998 1902.14 486.005 1955.32 486.024C1951.55 481.044 1833.11 429.56 1823.74 428.57C1822.96 428.488 1822.21 428.472 1821.43 428.5ZM1819.29 505.499L1788.05 507.003C1794.84 507.808 1802.65 508.13 1807.29 514.017C1808.84 515.991 1808.62 516.878 1808.45 519.234C1806.26 523.062 1801.19 525.315 1797.12 526.652C1799.37 544.241 1796.82 564.04 1796.38 581.8C1795.99 597.564 1797.02 614.149 1795.11 629.765C1798.22 631.074 1800.17 631.431 1802.18 634.19C1801.12 637.698 1797.63 639.292 1794.5 640.972L1793.69 641.401C1793.74 641.553 1793.79 641.704 1793.83 641.858C1794.98 646.163 1792.61 655.295 1796.97 657.566C1800.58 659.445 1805.61 659.289 1809.53 660.262C1803.47 667.426 1791.43 672.383 1782.71 675.5C1795.1 677.682 1814.76 679.141 1826.68 673.96C1830.04 666.727 1830.98 552.56 1830.49 536.692C1830.35 532.29 1826.79 512.878 1828.07 510.646C1828.63 509.673 1831.08 508.227 1832.16 507.804C1835.54 506.482 1850.82 507.628 1851.78 506.382L1849.65 507.906C1849.01 506.707 1848.95 505.862 1847.58 505.475C1839.89 503.32 1827.35 505.18 1819.29 505.499ZM1860.32 504.5L1858.58 505.603C1858.68 505.696 1858.79 505.786 1858.89 505.883C1860.79 507.754 1862.95 512.736 1862.82 515.415C1862.42 523.163 1854.99 529.78 1854.56 538.091C1854.01 548.896 1855.37 560.169 1855.47 571.028C1855.65 592.064 1855.05 613.16 1854.78 634.198C1854.63 646.68 1855.18 660.253 1852.61 672.477C1857.24 672.117 1862.3 672.126 1866.82 671.123C1871.05 670.874 1875.54 670.909 1879.66 669.923C1880.46 668.457 1881.03 667.06 1881.19 665.389C1883.01 647.357 1882.37 628.615 1882.95 610.455Q1883.87 582.542 1884.5 554.62C1884.73 544.875 1886.01 533.758 1884.27 524.161C1884.19 523.881 1884.12 523.598 1884.03 523.321C1883.38 521.261 1881.6 520.113 1880.6 518.341C1879 515.521 1882.49 508.383 1881.59 504.221C1874.49 504.191 1867.42 504.196 1860.32 504.5ZM1910.12 503.402C1913.07 505.673 1917.29 508.987 1918.07 512.829Q1918.14 513.161 1918.17 513.498Q1918.2 513.835 1918.2 514.174Q1918.2 514.513 1918.16 514.849Q1918.12 515.186 1918.04 515.516Q1917.97 515.847 1917.86 516.167Q1917.75 516.488 1917.61 516.795Q1917.46 517.102 1917.29 517.392Q1917.11 517.682 1916.91 517.952C1915.18 520.275 1911.74 521.848 1909 522.674C1911 531.191 1907.26 663.933 1905.29 667.222C1905.13 667.484 1904.95 667.732 1904.78 667.987C1913.12 667.301 1921.53 666.791 1929.83 665.689C1931.54 661.847 1932.72 627.608 1931.15 623.224C1930.97 622.723 1930.9 622.607 1930.69 622.174C1933.89 613.493 1932.8 599.709 1933.12 590.265C1933.61 575.828 1936.99 510.725 1929.82 503.052C1923.25 503.082 1916.67 503.018 1910.12 503.402ZM1600.62 641.499C1599.49 643.137 1598.42 644.737 1597.49 646.499C1606.17 650.598 1638.2 654.223 1642.19 660.86C1634.52 658.993 1600.65 650.04 1595.89 651.888C1593.9 653.989 1592.81 655.399 1592.91 658.427C1593.02 661.74 1594.65 666.203 1597.01 668.578C1602.93 674.535 1670.35 691.597 1683.05 695.072C1691.26 697.317 1701.59 698.946 1709.01 702.888C1709.78 698.717 1707.78 693.585 1705.38 690.18C1704.93 689.546 1704.46 689.01 1703.93 688.444C1700.05 686.932 1696.26 685.875 1692.2 684.969L1691.58 684.687C1680.49 679.77 1666.83 680.494 1656.2 675.13C1671.72 674.472 1689.86 684.004 1705.18 679.224L1705.72 677.816C1699.77 670.845 1684.55 668.577 1675.99 666.605C1687.31 665.268 1698.85 671.5 1710.59 669.987L1711.13 667.163L1712.95 669.09L1710.48 669.949L1711.68 667.363C1698.54 659.392 1614.72 638.297 1600.62 641.499ZM1734.78 509.674C1739.7 511.959 1745.4 514.276 1747.17 519.964C1747.96 522.527 1747.62 525.169 1746.24 527.473C1744.92 529.671 1743.01 531.803 1741.05 533.44C1741.16 547.493 1742.17 610.145 1736.72 618.932C1743.92 620.195 1761.05 621.652 1766.71 625.026L1769.16 623.652C1770.94 617.186 1772.72 536.524 1770.92 530.841C1768.93 525.89 1765.98 520.855 1768.13 515.447C1768.5 514.53 1769.63 513.96 1770.53 513.659C1775.5 512.018 1783.21 512.794 1786.81 508.265C1771.66 505.577 1750.24 508.806 1734.78 509.674ZM1702.06 510.5C1692.04 510.735 1669.76 508.97 1662.04 513.618L1661.21 515.703L1662.23 516.893C1662.5 516.896 1662.78 516.895 1663.05 516.901C1666.79 516.972 1669.96 519.405 1673.03 519.569C1679.12 519.893 1681.93 513.246 1688.55 517.644C1689.95 520.511 1691.15 524.209 1690.1 527.393C1689.16 530.201 1685.6 532.179 1684.83 534.473C1683.45 538.54 1683.42 595.46 1682.14 608.325C1683.15 608.699 1684.19 609.17 1685.23 609.422C1693.32 610.373 1704.66 610.882 1712.01 614.457C1716.7 606.461 1716.59 543.691 1714.59 533.305C1712.66 527.909 1709.04 523.121 1711.79 516.907C1712.35 515.647 1713.12 515.054 1714.43 514.67C1719.08 513.312 1723.8 517.899 1727.91 516.359C1728.27 514.452 1728.66 512.992 1728.02 511.118C1720.46 508.822 1709.95 510.224 1702.06 510.5ZM1575.7 692.5C1574.38 698.09 1572.7 705.447 1575.82 710.783C1582.84 722.787 1686.97 740.528 1709.2 749.632C1711.24 746.13 1712.61 741.413 1711.29 737.39C1711.01 736.539 1710.98 736.556 1710.59 735.907C1695.45 730.496 1651.31 721.301 1634.81 719.502C1629.33 718.011 1623.65 716.054 1618.08 715.029C1637.52 716.861 1656.8 720.353 1676.04 723.594C1685.67 725.216 1695.72 727.554 1705.46 727.965C1708.73 728.103 1711.61 728.113 1714.25 726.141L1713.91 724.768C1703.18 719.908 1589.53 693.104 1575.7 692.5ZM1781.21 641.499C1762.91 649.549 1722.38 658.834 1714.16 679C1711.9 684.558 1713.21 690.199 1715.51 695.519C1716.96 698.889 1719.04 702.102 1722.11 704.186C1723.99 703.95 1725.66 703.479 1727.34 702.569C1734.66 698.601 1741.12 692.94 1748.26 688.588C1760.28 681.262 1773.05 674.987 1784.93 667.528C1787.23 666.082 1789.7 664.547 1791.35 662.338C1791.44 662.216 1791.52 662.087 1791.61 661.962C1791.2 660.358 1790.87 658.79 1790.18 657.282C1787.73 651.939 1791.28 645.345 1789.03 640.938C1786.25 640.512 1783.92 640.971 1781.21 641.499ZM1793.74 685.498C1782.53 699.426 1738.03 700.675 1723.74 728.221C1721.75 732.066 1719.85 737.218 1720.24 741.633C1720.51 744.596 1721.85 747.228 1724.16 749.086C1725.62 750.257 1726.49 750.283 1728.29 750.629C1736.52 748.141 1797.03 715.019 1800.31 711.02C1800.13 706.625 1796.4 703.34 1796.19 699.027C1795.99 694.979 1799.91 688.435 1797.95 685.106L1793.74 685.498ZM1818.66 417.499C1817.45 419.923 1816.43 420.407 1814.04 421.639C1799.42 429.173 1782.85 434.146 1767.6 440.356C1738.55 452.191 1709.73 464.689 1680.57 476.272C1669.11 480.825 1656.31 484.153 1645.47 490.019C1643.5 491.086 1641.98 491.957 1641.25 494.105C1643.6 496.015 1645.24 496.334 1648.27 495.979C1662.03 494.367 1683.44 481.828 1697.14 476.192L1755.58 452.077C1765.88 447.915 1776.5 444.333 1786.63 439.795C1790.75 437.952 1794.48 435.727 1798.18 433.149C1806.24 431.553 1815.77 428.636 1821.93 422.947L1822.81 423.124C1833.97 425.493 1845.71 431.747 1856.24 436.25L1934.3 469.857C1945.85 474.895 1958.55 482.229 1970.52 485.598C1973.18 486.344 1975.68 486.177 1978.35 485.62L1978.63 484.201C1975.88 481.33 1972.52 479.514 1968.99 477.779C1953.1 469.98 1830.22 417.481 1822.82 417.081C1821.43 417.006 1820.01 417.193 1818.66 417.499ZM1941.09 490.5C1881.06 491.247 1821.34 494.802 1761.39 497.174C1729.87 498.421 1697.91 497.397 1666.48 499.832C1663.91 500.031 1661.29 500.096 1659.27 501.89L1658.95 503.816C1663.93 507.983 1672.51 506.166 1678.75 505.974Q1787.25 503.136 1895.67 498.24C1914.54 497.481 1933.94 499.553 1952.64 498.215C1955.47 498.012 1959.26 496.899 1961.45 495C1962.07 494.466 1962.35 493.889 1962.71 493.172C1961.82 491.58 1961.79 491.451 1960.11 490.956C1954.33 489.26 1947.08 490.276 1941.09 490.5ZM1970.69 681.498C1946.16 686.261 1810.83 693.286 1803.59 698.121C1802.24 700.369 1802.35 700.377 1802.89 702.966C1804.34 704.766 1805.47 706.031 1807.87 706.257C1809.46 706.406 1811.16 706.236 1812.75 706.141C1835.3 704.867 1972.92 694.359 1982.57 688.623L1983.65 686.99C1983.01 684.547 1981.12 682.858 1979 681.564C1976.72 680.163 1973.21 681.098 1970.69 681.498ZM1955.12 668.501C1905.21 673.936 1854.72 675.831 1804.96 681.87C1805.75 684.798 1804.8 689.318 1803.14 691.844C1803.03 692.009 1802.89 692.152 1802.77 692.305L1815.75 691.007Q1863.59 687.332 1911.36 682.793C1928.42 681.246 1946.51 680.729 1963.34 677.764C1965.59 677.368 1968.52 676.645 1970.12 674.913C1970.94 674.027 1970.78 673.417 1970.91 672.272C1969.57 670.122 1968.15 668.719 1965.61 668.062C1962.53 667.261 1958.26 668.139 1955.12 668.501ZM1929.82 503.052C1936.99 510.725 1933.61 575.828 1933.12 590.265C1932.8 599.709 1933.89 613.493 1930.69 622.174L1934.42 620.516C1934.49 631.282 1932.82 652.552 1936.36 662.136C1937.04 663.982 1937.19 663.985 1938.98 664.778L1940 663.539C1943.37 643.228 1941 621.548 1941.5 600.974C1941.77 590.034 1946.24 533.422 1943.11 526.892C1942.55 525.725 1941.41 524.411 1940.66 523.324L1941.12 520.892C1939.91 518.895 1939.3 516.07 1938.54 513.835L1936.49 513.184L1935.92 511.973C1938.45 511.376 1938.41 511.31 1939.89 509.16L1940.22 506.898C1939.31 504.365 1938.28 503.375 1936.1 501.846C1933.57 501.623 1932.11 501.991 1929.82 503.052ZM1956.73 663.053C1957.42 646.032 1961.41 532.477 1958.56 524.838C1957.51 526.936 1957.37 528.155 1957.68 530.471L1956.34 529.606C1957.17 527.403 1957.16 527.091 1956.63 524.788L1953.91 524.117C1952.1 525.381 1952.11 525.608 1951.74 527.71C1949.6 539.72 1950.11 553.374 1949.6 565.619C1948.26 597.648 1947.65 629.814 1946.85 661.859C1948.1 663.554 1948.31 664.06 1950.51 664.485C1952.24 664.821 1954.12 664.368 1955.83 664.053L1956.73 663.053ZM1583.21 684.499L1581.05 686.19C1585.5 693.063 1660.27 707.348 1672.24 709.907C1681.08 711.797 1705.68 715.337 1712.21 718.888C1714.42 718.903 1715.62 719.344 1717.34 717.756C1716.29 715.478 1714.43 715.005 1712.13 714.16C1692.09 706.797 1669.42 703.443 1648.68 698.518C1631.71 694.489 1614.83 688.916 1597.73 685.678C1593.05 684.792 1587.96 684.093 1583.21 684.499ZM1888.63 524.497C1894.71 536.601 1882.44 657.498 1887.7 667.167L1889.84 667.122L1890.39 666.501C1892.59 660.864 1896.75 533.929 1894.74 524.288C1892.49 523.748 1890.85 524.066 1888.63 524.497ZM1770.92 530.841C1772.72 536.524 1770.94 617.186 1769.16 623.652L1766.71 625.026C1768.1 625.696 1769.1 626.16 1770.67 625.869C1772.98 625.438 1775.32 625.566 1777.66 625.598C1779.45 620.103 1781.95 543.727 1781.06 536.759C1780.83 534.961 1780.81 533.763 1779.34 532.623C1777.8 533.938 1778.12 536.833 1777.92 538.845L1777.81 537.727C1777.31 543.648 1775.61 549.617 1775.34 555.412C1774.78 567.174 1777.15 580.001 1774.64 591.528C1768.84 580.344 1778.63 539.737 1770.92 530.841ZM1846.45 522.496C1848.69 529.909 1846.55 543.019 1846.43 551.033C1846.07 575.514 1846.24 600.026 1845.59 624.498C1845.23 638.107 1843.67 652.056 1844.02 665.627C1844.07 667.78 1843.85 669.066 1845.4 670.665L1846.4 670.504C1847.67 669.205 1848.41 667.876 1848.71 666.074C1850.82 653.118 1849.82 638.113 1850.03 624.968C1850.4 601.424 1851.17 577.798 1850.91 554.258C1850.82 545.737 1853.81 530.249 1850.39 522.769C1849.07 522.61 1847.78 522.404 1846.45 522.496ZM1729.35 533.498C1734 544.252 1726.28 613.702 1730.34 617.642L1732.22 617.523C1737.71 610.677 1736.41 546.032 1735.6 533.504C1733.46 533.33 1731.48 533.235 1729.35 533.498ZM1885.86 511.5L1884.66 514.246C1886 516.412 1886.8 517.038 1889.34 517.648C1893.63 518.68 1904.24 518.964 1908.01 516.481C1908.07 516.442 1908.12 516.398 1908.18 516.357C1910.63 515.218 1912.06 514.955 1913.42 512.542C1908.11 508.636 1892.58 510.878 1885.86 511.5ZM1702.56 360.497C1702.65 364.595 1700.92 367.852 1698.62 371.154C1702.74 372.85 1707.02 374.532 1709.46 378.503L1712.71 377.965C1713.93 375.222 1713.17 371.388 1712.1 368.657C1711 365.875 1708.91 361.66 1706.02 360.528C1705.11 360.175 1703.55 360.462 1702.56 360.497ZM1936.1 501.846C1938.28 503.375 1939.31 504.365 1940.22 506.898L1939.89 509.16C1945.19 509.38 1950.49 509.747 1955.78 509.164L1955.98 506.837L1954.11 506.646C1953.63 504.971 1953.03 504.03 1951.93 502.69C1946.96 500.812 1941.31 501.6 1936.1 501.846ZM1773.95 516.499C1772.3 518.512 1771.61 518.944 1771.56 521.647C1773.03 523.713 1774.93 524.453 1777.35 524.898C1779.48 525.291 1782.06 525.179 1784.19 524.822L1787.75 523.544L1788.44 521.995C1787.01 519.409 1783.68 518.074 1780.96 517.221C1778.77 516.532 1776.23 516.288 1773.95 516.499ZM1734.63 516.497C1734.16 519.502 1732.5 523.495 1733.6 526.227C1735.11 526.617 1736.22 527.003 1737.76 526.502C1740.65 525.242 1740.94 525.257 1742.39 522.505C1742.13 520.011 1741.83 518.91 1739.77 517.171C1738.27 515.903 1736.42 516.374 1734.63 516.497ZM1834.34 511.499C1832.2 513.215 1831.64 513.376 1830.98 515.986C1832.55 518.038 1833.47 518.574 1836.18 518.963C1839.19 518.235 1840.21 518.196 1842.36 515.816C1842 513.272 1841.66 513.343 1839.6 511.725C1837.86 511.613 1836.09 511.435 1834.34 511.499ZM1791.52 513.499C1791.9 516.682 1792.19 517.29 1794.1 519.872C1796.09 520.567 1796.19 520.84 1798.24 520.017C1800.31 519.136 1801.67 518.695 1802.8 516.678C1801.75 514.484 1800.79 514.096 1798.54 513.358C1796.44 512.667 1793.67 513.118 1791.52 513.499ZM1716.93 519.498C1715.83 521.945 1715.31 522.836 1715.61 525.58C1717.5 526.902 1717.9 526.906 1720.23 527C1722.95 525.853 1723.34 525.919 1724.68 523.352C1723.65 520.924 1723.27 520.809 1720.99 519.413L1716.93 519.498Z"/>
	<path fill="#f2f2f2" fill-opacity="0.97647059" transform="matrix(0.0888672 0 0 0.0888672 6.10352e-05 0)" d="M1936.1 501.846C1941.31 501.6 1946.96 500.812 1951.93 502.69C1953.03 504.03 1953.63 504.971 1954.11 506.646L1955.98 506.837L1955.78 509.164C1950.49 509.747 1945.19 509.38 1939.89 509.16L1940.22 506.898C1939.31 504.365 1938.28 503.375 1936.1 501.846Z"/>
	<path fill="#FEFEFE" fill-opacity="0.011764706" transform="matrix(0.0888672 0 0 0.0888672 6.10352e-05 0)" d="M1729.35 533.498C1731.48 533.235 1733.46 533.33 1735.6 533.504C1736.41 546.032 1737.71 610.677 1732.22 617.523L1730.34 617.642C1726.28 613.702 1734 544.252 1729.35 533.498Z"/>
	<path fill="#FEFEFE" fill-opacity="0.047058824" transform="matrix(0.0888672 0 0 0.0888672 6.10352e-05 0)" d="M1846.45 522.496C1847.78 522.404 1849.07 522.61 1850.39 522.769C1853.81 530.249 1850.82 545.737 1850.91 554.258C1851.17 577.798 1850.4 601.424 1850.03 624.968C1849.82 638.113 1850.82 653.118 1848.71 666.074C1848.41 667.876 1847.67 669.205 1846.4 670.504L1845.4 670.665C1843.85 669.066 1844.07 667.78 1844.02 665.627C1843.67 652.056 1845.23 638.107 1845.59 624.498C1846.24 600.026 1846.07 575.514 1846.43 551.033C1846.55 543.019 1848.69 529.909 1846.45 522.496Z"/>
	<path fill="#f2f2f2" fill-opacity="0.97254902" transform="matrix(0.0888672 0 0 0.0888672 6.10352e-05 0)" d="M1770.92 530.841C1778.63 539.737 1768.84 580.344 1774.64 591.528C1777.15 580.001 1774.78 567.174 1775.34 555.412C1775.61 549.617 1777.31 543.648 1777.81 537.727L1777.92 538.845C1778.12 536.833 1777.8 533.938 1779.34 532.623C1780.81 533.763 1780.83 534.961 1781.06 536.759C1781.95 543.727 1779.45 620.103 1777.66 625.598C1775.32 625.566 1772.98 625.438 1770.67 625.869C1769.1 626.16 1768.1 625.696 1766.71 625.026L1769.16 623.652C1770.94 617.186 1772.72 536.524 1770.92 530.841Z"/>
	<path fill="#FEFEFE" fill-opacity="0.039215688" transform="matrix(0.0888672 0 0 0.0888672 6.10352e-05 0)" d="M1888.63 524.497C1890.85 524.066 1892.49 523.748 1894.74 524.288C1896.75 533.929 1892.59 660.864 1890.39 666.501L1889.84 667.122L1887.7 667.167C1882.44 657.498 1894.71 536.601 1888.63 524.497Z"/>
	<path fill="#f2f2f2" fill-opacity="0.98039216" transform="matrix(0.0888672 0 0 0.0888672 6.10352e-05 0)" d="M1956.73 663.053L1955.83 664.053C1954.12 664.368 1952.24 664.821 1950.51 664.485C1948.31 664.06 1948.1 663.554 1946.85 661.859C1947.65 629.814 1948.26 597.648 1949.6 565.619C1950.11 553.374 1949.6 539.72 1951.74 527.71C1952.11 525.608 1952.1 525.381 1953.91 524.117L1956.63 524.788C1957.16 527.091 1957.17 527.403 1956.34 529.606L1957.68 530.471C1957.37 528.155 1957.51 526.936 1958.56 524.838C1961.41 532.477 1957.42 646.032 1956.73 663.053Z"/>
	<path fill="#f2f2f2" fill-opacity="0.95294118" transform="matrix(0.0888672 0 0 0.0888672 6.10352e-05 0)" d="M1929.82 503.052C1932.11 501.991 1933.57 501.623 1936.1 501.846C1938.28 503.375 1939.31 504.365 1940.22 506.898L1939.89 509.16C1938.41 511.31 1938.45 511.376 1935.92 511.973L1936.49 513.184L1938.54 513.835C1939.3 516.07 1939.91 518.895 1941.12 520.892L1940.66 523.324C1941.41 524.411 1942.55 525.725 1943.11 526.892C1946.24 533.422 1941.77 590.034 1941.5 600.974C1941 621.548 1943.37 643.228 1940 663.539L1938.98 664.778C1937.19 663.985 1937.04 663.982 1936.36 662.136C1932.82 652.552 1934.49 631.282 1934.42 620.516L1930.69 622.174C1933.89 613.493 1932.8 599.709 1933.12 590.265C1933.61 575.828 1936.99 510.725 1929.82 503.052Z"/>
</svg>